<svg xmlns="http://www.w3.org/2000/svg" xmlns:xlink="http://www.w3.org/1999/xlink" width="2000" zoomAndPan="magnify" viewBox="0 0 1500 1499.999933" height="2000" preserveAspectRatio="xMidYMid meet" version="1.0"><defs><g/><clipPath id="ce213122df"><rect x="0" width="768" y="0" height="1248"/></clipPath><clipPath id="4df79069cd"><rect x="0" width="239" y="0" height="1332"/></clipPath></defs><g transform="matrix(1, 0, 0, 1, 202, 138)"><g clip-path="url(#ce213122df)"><g fill="#000000" fill-opacity="1"><g transform="translate(0.661705, 1003.773451)"><g><path d="M 84.8125 -788.515625 L 722.046875 -788.515625 L 722.046875 -599.40625 L 338.09375 -599.40625 L 338.09375 -464.171875 L 668.171875 -464.171875 L 668.171875 -283.078125 L 338.09375 -283.078125 L 338.09375 0 L 84.8125 0 Z M 84.8125 -788.515625 "/></g></g></g></g></g><g transform="matrix(1, 0, 0, 1, 909, 38)"><g clip-path="url(#4df79069cd)"><g fill="#000000" fill-opacity="1"><g transform="translate(2.071888, 1083.408616)"><g><path d="M 25.421875 -70.96875 C 25.421875 -94.269531 34.070312 -114.921875 51.375 -132.921875 C 68.675781 -150.929688 89.679688 -159.9375 114.390625 -159.9375 C 138.398438 -159.9375 159.226562 -151.109375 176.875 -133.453125 C 194.53125 -115.804688 203.359375 -94.976562 203.359375 -70.96875 C 203.359375 -45.539062 194.707031 -24.175781 177.40625 -6.875 C 160.113281 10.414062 139.109375 19.0625 114.390625 19.0625 C 90.378906 19.0625 69.546875 10.585938 51.890625 -6.359375 C 34.242188 -23.304688 25.421875 -44.84375 25.421875 -70.96875 Z M 25.421875 -70.96875 "/></g></g></g></g></g><path stroke-linecap="butt" transform="matrix(0.75, 0, 0, 0.75, 172.059175, 1144.054801)" fill="none" stroke-linejoin="miter" d="M -0.000774373 8.999849 L 1557.817068 8.999849 " stroke="#ff6b35" stroke-width="18" stroke-opacity="1" stroke-miterlimit="4"/><path stroke-linecap="butt" transform="matrix(0, -0.75, 0.75, 0, 924.20369, 1447.827983)" fill="none" stroke-linejoin="miter" d="M -0.000188942 8.999248 L 1860.890596 8.999248 " stroke="#ff6b35" stroke-width="18" stroke-opacity="1" stroke-miterlimit="4"/></svg>